<?xml version="1.0" encoding="utf-8"?>
<!-- Generator: Adobe Illustrator 22.0.1, SVG Export Plug-In . SVG Version: 6.00 Build 0)  -->
<svg version="1.1" id="Ebene_1" xmlns="http://www.w3.org/2000/svg" xmlns:xlink="http://www.w3.org/1999/xlink" x="0px" y="0px"
	 viewBox="0 0 500 500" style="enable-background:new 0 0 500 500;" xml:space="preserve">
<style type="text/css">
	.st0{fill:#666769;}
	.st1{fill:#E1E1E2;}
	.st2{fill:#D8D8D9;}
	.st3{fill:#DCDDDD;}
	.st4{fill:#FEFEFE;}
	.st5{fill:#F8F8F8;}
	.st6{fill:#F4F4F4;}
	.st7{fill:#EDEDED;}
	.st8{fill:#EEEEEE;}
	.st9{fill:#EAEAEA;}
	.st10{fill:#CBCCCC;}
	.st11{fill:#E8E8E8;}
	.st12{fill:#ABACAD;}
	.st13{fill:#F7F7F8;}
	.st14{fill:#DCDCDD;}
</style>
<g>
	<path class="st0" d="M348.9,366.9c-10.8,7.8-21.8,15.3-33.4,21.8c-3,1.7-6,2.7-9.5,1.6c-2.4-0.8-4.2-1.9-4.7-4.5
		c-0.5-2.5,0.3-4.6,2.4-6.1c4.9-3.5,9.6-7.3,14.7-10.3c12.5-7.4,23.6-16.7,34.1-26.6c7.8-7.4,13.9-16,18.7-25.7
		c0.4-1.2,0.1-1.6-1.2-1.2c-4.9,5.8-8.3,12.7-13.3,18.6c-8.7,10-20.3,16-30.8,23.6c-2.4,1.7-5,1.3-7.6-0.1c-4.6-2.5-5.2-5.6-0.9-8.7
		c21.4-15.2,32.9-37.6,43.5-60.5c8.5-18.2,13.1-37.8,10.2-57.9c-4.6-31.4-17.1-59.3-41.2-81c-4-3.6-8.6-6.4-14-7.3
		c-2.1-0.4-4.7-0.7-5.8,1.4c-1,1.9,0.5,3.9,2,5.3c3.8,3.5,7.7,6.9,11.7,10.1c17.5,14.1,30,31.5,35.9,53.3c0.5,1.8,1.1,3.6,0.1,5.3
		c-1.6,2.7-5.4,2.7-6.7-0.4c-5-12.1-14.9-20.3-22.8-30.1c-1.2-1.5-2.7-3.1-4.4-4c-15.3-8.9-31.3-16.6-48.7-20
		c-10.1-2-20.6-0.2-30.9,1c-5.6,0.7-11.2,1.8-16.7,2.8c-9.2,1.6-17.4,5.4-24.9,10.9c-11.9,8.6-22.9,18-31.7,30.1
		c-14.8,20.6-18.8,42.9-13.5,67.5c5.3,25,18.4,44.5,39.3,59.1c11.9,8.3,23.3,17.2,32,29.1c3.3,4.5,6.1,9.2,7.1,14.7
		c0.7,3.9,1.2,8.2-4.2,9.7c-2.5,0.7-1.5,2.6-1.2,4.1c2,9.5,0.1,11.4-9.7,9.5c-1.1-0.2-2.1-1.1-3.6-0.3c1.3,3,2.7,6,3.8,9
		c1.2,3.6,2.7,7.6-1,10.6c-3.4,2.8-7.4,2.6-11.3,0.7c-0.6-0.3-1-0.9-1.8-0.3c0.8,2.3,1.7,4.5,2.2,6.9c1.8,7.5-0.8,10.9-8.4,10.6
		c-8.7-0.3-17.2-1.8-25.5-4.4c-2-0.6-4-1.8-6.2-1.3c1.7,7.3,0.7,8.8-6.9,9.8c-3.7,0.5-7.2-0.3-10.8-1.3
		c-20.5-5.3-36.6-17.6-51.3-32.3c-23.4-23.3-39.7-50.8-51-81.9c-8-22.1-9.1-44.7-10.6-67.6c-0.6-9.5,3-17.7,4-26.5
		c1.9-17.1,5.9-33.8,10.3-50.3c4.8-18.4,14.4-34.6,24.9-50.3c14.3-21.4,33.3-38,55-51.5c18.5-11.5,37.1-23,58.4-28.9
		c19.5-5.3,39.3-8.6,59.5-9.5c6.4-0.3,12.6,1.2,18.8,2.1c2.7,0.4,5.6,1.2,5.7,4.5c0.1,3.1-2.6,4.7-5.3,5.2
		c-8.2,1.6-16.3,3.2-24.6,4.2c-28.8,3.7-57.2,8.3-83,22.9c-8.7,4.9-17.8,8.9-25.7,15.2c-3.4,2.7-5.8,5.9-8.1,9.4
		c-1.5,2.2-0.4,2.9,1.6,3.1c2.8,0.3,5.2-0.8,7.7-1.9c17.9-7.7,34.6-17.9,52.3-25.9c25.2-11.4,51.7-16.9,79.1-19
		c11.1-0.8,22.3-1.5,33.2-3.6c1.6-0.3,3.8-0.4,4-2c0.2-1.6-1.9-1.9-3.3-2.4c-2.3-0.8-2-2.8-1.9-4.6c0.1-2,1.6-2.1,3.2-2.3
		c8.3-1.1,15.8,2.4,23.7,3.5c10.9,1.6,20.9,6.4,31.1,10.4c4.3,1.7,6.1,5.8,9.7,7.9c37.6,22.5,63,55.6,82.2,94.1
		c13.8,27.6,21.8,56.7,25,87.3c0.7,6.7-0.8,13.3-1,19.9c-0.5,17.5-3.4,34.7-8,51.7c-1.7,6.3-4.8,12.1-7.2,18.1
		c-0.8,2-1.5,5.1-4.7,3.9c-3.3-1.2-2.7-4-1.9-6.7c1.8-5.5,3.5-11.1,5.4-16.6c3.6-10.2,4.1-20.7,3.1-31.4c-3.1,7.2-3.9,14.9-5.5,22.4
		c-4.1,19.5-10,38.5-20,55.6c-6,10.4-13.1,20.5-21.2,29.6c-3.6,4-7.6,7.5-12.9,9.1c-2.2,0.7-4.8,1.6-6.5-0.7c-1.6-2.2-1.3-5,0-7.1
		c2.1-3.4,4.4-6.7,7.1-9.6c15.9-17,26.2-37,32.4-59.3c0.8-2.6,0.8-2.6-1.1-3.1c-6,7.5-9.2,16.6-14.1,24.6
		c-10.7,17.7-23.7,33.7-39.8,46.4c-10.1,7.9-21,15.2-32.7,21.1c-3.4,1.7-6.6,3.8-9.9,5.8c-2.5,1.5-5,2.4-8,1.4
		c-4.7-1.7-5.7-4.6-2.9-8.7c5.6-8.3,14.3-12.8,21.9-18.7c8.2-6.5,17-12.3,23.3-21c0.9-1.3,2.4-2.3,2.1-4.8
		c-5.7,3.4-10.8,7.1-15.4,11.5c-14.9,14.2-32.4,24.3-51.3,32.2c-2,0.8-4.1,1.5-6.3,1c-2.7-0.6-5.2-1.6-6.2-4.4
		c-1-2.8,0.6-4.8,2.3-6.7c2-2.3,4.6-3.9,7.1-5.4c15.9-9.5,31.6-19.2,44-33.3c0.3-0.6,0.5-1.3,1.8-2.1
		C350.3,366.4,349.5,366.6,348.9,366.9z"/>
	<path class="st1" d="M348.9,366.9c1.2-1.7,3-2.5,5.3-3.9c-0.6,2.8-2.4,3.9-4.1,4.9C349.6,367.6,349.2,367.2,348.9,366.9z"/>
	<path class="st2" d="M436,327c0.4-0.5,0.7-1.3,1.1-1.4c0.9-0.2,0.8,0.7,0.8,1.3c-0.1,1.1,0,2.3-0.9,3.2
		C436.8,329,437.2,327.7,436,327z"/>
	<path class="st3" d="M369.9,315.9c0.6-0.8,0.8-2.7,2.2-1.6c0.8,0.6-0.1,2-1,2.8C370.7,316.7,370.3,316.3,369.9,315.9z"/>
	<path class="st4" d="M142.6,306.9c-7.8-9.2-11.3-20.1-13.6-31.6c-2.5-12.8-0.2-25.5,1-38.3c1.9-19.3,6.5-37.9,18.2-53.7
		c21-28.2,48.6-45.8,84.3-49.3c3.3-0.3,6.3-2.6,9.7-1.7c2.1,0.6,4.4,0.4,6.5,2.2c-3.5,4.1-8.4,5-13.2,5.9
		c-23.7,4.5-44.6,15.5-63.5,29.9c-20.7,15.8-31.3,37.6-34,63.2c-1.3,12.7-2.7,25.5-1.3,38.3c0.5,4.5,1.4,8.9,3.1,13
		c2.3,5.4,3.2,11.2,3.9,17C144,303.6,144.4,305.4,142.6,306.9z"/>
	<path class="st4" d="M347.2,100.7c4.5-2.4,7.3-1.1,10.1,0.6c25.1,15.5,45.3,35.7,59.7,61.6c10.9,19.6,20.2,39.8,23.3,62.3
		c1.9,13.4,2.1,26.9,1.5,40.4c-0.1,2.2-1,4.2-2.4,6.4c-3-3.7-3-8.1-3.2-12.2c-1.3-32.1-9.3-62.5-24.8-90.6
		c-7-12.7-17-23.4-26.8-34.1c-10.3-11.4-22.4-20.9-33.4-31.5C350.1,102.3,348.6,101.6,347.2,100.7z"/>
	<path class="st5" d="M107.2,279c1.8-4.4,4.6-6.1,8.2-6.9c2.6-0.5,4.1,0.8,4.5,3.4c0.5,3.1-1.8,2.4-3.5,2.6
		C113.5,278.3,110.7,278.6,107.2,279z"/>
	<path class="st6" d="M74.6,337.3c1.5,0.9,4.8-0.1,4.9,2c0.1,2.4-2.9,2-4.7,1.7c-1.4-0.2-3.8,0.6-3.7-1.9
		C71.1,337.4,72.9,337.2,74.6,337.3z"/>
	<path class="st6" d="M215.3,364.2c-1.3-0.4-2.4-1.2-2-2.4c0.6-2.4,2.7-3.2,4.9-3.6c1-0.2,2.4,0.2,2.1,1.4
		C219.6,362.1,217.1,362.8,215.3,364.2z"/>
	<path class="st7" d="M141,423.8c4.7-1.3,7.6,1,10.7,1.8C148,428.1,145,426.3,141,423.8z"/>
	<path class="st8" d="M423.4,268.2c1.5-1.1,0.5-4.6,3.5-3.7c1.1,0.3,2.8,1.2,2.2,2.8C427.9,270,425.6,268.8,423.4,268.2z"/>
	<path class="st6" d="M80.8,259.9c3-1.4,4.9-1,7.2-0.3C86,262.2,84,261.6,80.8,259.9z"/>
	<path class="st9" d="M176.2,334.1c3.1-0.5,4.2,1.3,6.1,4.2C179.4,337,177.5,336.4,176.2,334.1z"/>
	<path class="st10" d="M407.1,362.4c-1.8,2.1-3.2,0.7-4.9,0.3C403.9,360.5,405.3,361.4,407.1,362.4z"/>
	<path class="st11" d="M85.6,341.8c1.3-0.1,1.6,1,1.9,1.9c0.3,0.8-0.2,1.3-0.9,1.3c-1.1-0.1-1.6-1.1-2-2C84.1,342,85,342,85.6,341.8
		z"/>
	<path class="st12" d="M341.1,71c-0.5-0.1-1.5,0.2-1.3-0.8c0.1-0.4,1-0.8,1.5-0.9c0.3-0.1,1.1,0.3,1.1,0.6
		C342.6,70.9,341.8,70.8,341.1,71z"/>
	<path class="st13" d="M266.4,134c1.3,1.4,2.1,2.7,1,3.4c-1.4,0.8-1.2-0.9-1.3-1.7C266,135.3,266.2,134.8,266.4,134z"/>
	<path class="st14" d="M82.4,369.4c-0.3-0.2-0.8-0.5-0.9-0.8c-0.1-1,0.8-1.2,1.5-1.4c0.3-0.1,0.9,0.4,0.9,0.7
		C84.1,369,83.3,369.2,82.4,369.4z"/>
</g>
</svg>
